<svg width="16" height="16" viewBox="0 0 16 16" fill="none" xmlns="http://www.w3.org/2000/svg">
<g clip-path="url(#clip0_2212_12)">
<path d="M8.86872 4.59023C7.11261 4.65079 5.57336 5.55945 5.02935 6.0597C4.7563 6.2598 4.03458 7.07884 3.68493 8.06068C3.06588 9.79903 3.81 11.6249 4.55411 12.6692C5.11064 13.4502 6.73155 15.1243 9.03756 15.3017C10.9072 15.4456 12.7576 14.566 13.5147 13.9136C14.1025 13.4071 15.6033 11.9626 15.7096 9.54266C15.8159 7.12272 14.1903 5.98973 13.3021 5.45941C12.433 4.9404 11.4075 4.50269 8.86872 4.59023Z" fill="#23C6E1"/>
<path d="M11.3199 3.83361C11.2762 3.8086 11.3637 3.61892 11.4137 3.53346C12.6018 1.33238 13.8587 0.719581 13.915 0.694569C13.96 0.674559 13.9999 0.678649 14.0213 0.700822C15.9159 2.74557 16.0752 6.40437 15.9784 6.67875C15.9476 6.7663 15.7721 6.73503 15.7283 6.62873C14.2901 4.24631 11.3818 3.86899 11.3199 3.83361Z" fill="#23C6E1"/>
<path d="M5.60462 4.39013C5.58461 4.39013 5.45434 4.38089 5.2607 4.39013C2.11542 4.54021 0.871057 5.66576 0.0581619 6.38486C-0.0187162 6.45287 -0.000199068 6.53285 0.00813835 6.5662C0.470865 8.34832 2.32803 10.0679 2.53438 10.1742C2.69946 10.2593 2.73238 10.1221 2.72821 10.0429C2.53438 7.01017 3.92191 5.9417 4.49158 5.42189C4.99183 4.96541 5.60984 4.67546 5.67966 4.57772C5.77346 4.44641 5.62963 4.39013 5.60462 4.39013Z" fill="#23C6E1"/>
<path d="M10.9448 12.7884C10.8798 12.7484 10.926 12.655 10.9448 12.6321C11.8098 11.9276 13.5361 10.5298 13.6211 10.4248C13.7061 10.3197 13.7399 10.3227 13.7462 10.3372C13.9123 10.7249 13.6836 11.7942 13.2334 12.2945C12.7832 12.7947 12.1266 12.8822 11.789 12.8822C11.4513 12.8822 11.0261 12.8385 10.9448 12.7884Z" fill="#1F1F1F"/>
<path d="M5.47336 10.331C5.41333 10.296 5.39832 10.3748 5.39832 10.4185C5.36706 10.6436 5.3483 11.1251 5.61718 11.8067C5.88606 12.4883 6.63018 12.8197 7.00536 12.8697C7.38055 12.9198 8.11841 12.8385 8.23096 12.7947C8.34352 12.7509 8.31851 12.6884 8.27473 12.6509C8.23096 12.6134 5.5484 10.3748 5.47336 10.331Z" fill="#1F1F1F"/>
</g>
<defs>
<clipPath id="clip0_2212_12">
<rect width="16" height="16" fill="white"/>
</clipPath>
</defs>
</svg>
